<?xml version="1.0" encoding="UTF-8"?>
<svg version="1.1" xmlns="http://www.w3.org/2000/svg" width="512" height="512">
<path d="M0 0 C168.96 0 337.92 0 512 0 C512 168.96 512 337.92 512 512 C343.04 512 174.08 512 0 512 C0 343.04 0 174.08 0 0 Z " fill="#0163C8" transform="translate(0,0)"/>
<path d="M0 0 C0.93199219 -0.00257812 1.86398437 -0.00515625 2.82421875 -0.0078125 C3.80003906 -0.00007813 4.77585937 0.00765625 5.78125 0.015625 C6.75707031 0.00789063 7.73289062 0.00015625 8.73828125 -0.0078125 C9.67027344 -0.00523438 10.60226562 -0.00265625 11.5625 0 C12.41908203 0.00225586 13.27566406 0.00451172 14.15820312 0.00683594 C16.28125 0.265625 16.28125 0.265625 18.28125 2.265625 C18.47461828 5.01141567 18.54167353 7.65596477 18.52175903 10.40261841 C18.52346788 11.25370615 18.52517673 12.10479389 18.52693737 12.98167217 C18.53024677 15.85000747 18.5192048 18.71811182 18.50830078 21.58642578 C18.50773698 23.63595575 18.50805262 25.68548613 18.50918579 27.73501587 C18.50976152 33.31326703 18.49797168 38.89143284 18.48403788 44.4696641 C18.4715671 50.29397052 18.47036291 56.11827872 18.46798706 61.94259644 C18.46176152 72.97816419 18.44533621 84.0136925 18.42528808 95.04924285 C18.40296244 107.61010884 18.39194405 120.17097667 18.38189721 132.73185754 C18.36097089 158.57646859 18.32577411 184.42104459 18.28125 210.265625 C15.80132469 207.84986559 13.82922147 205.30989116 11.78125 202.515625 C7.35232309 196.96124866 2.54607224 193.53686875 -3.71875 190.265625 C-4.52570313 189.83121094 -5.33265625 189.39679688 -6.1640625 188.94921875 C-15.79337217 184.61753869 -28.1732532 184.66293564 -38.32421875 187.1484375 C-52.92838803 192.85407673 -62.28419413 202.16197486 -68.5546875 216.3125 C-71.27921081 223.22437794 -71.09934491 228.2133588 -71.71875 236.265625 C-89.20875 236.265625 -106.69875 236.265625 -124.71875 236.265625 C-125.21375 228.840625 -125.21375 228.840625 -125.71875 221.265625 C-126.82303669 218.03625976 -127.70872381 215.68808937 -129.34375 212.828125 C-129.7042041 212.16055176 -130.0646582 211.49297852 -130.43603516 210.80517578 C-136.28097057 200.29970724 -143.75398347 193.69053647 -155.09375 189.390625 C-165.14753991 186.72557275 -179.19448032 186.20322846 -188.62890625 190.9453125 C-200.31809677 198.33025904 -209.27229335 207.2891654 -212.62109375 220.9453125 C-213.37046081 224.3778971 -214.0704037 227.81268978 -214.71875 231.265625 C-218.51428014 230.48583055 -220.17893654 229.24333733 -222.71875 226.265625 C-223.79056929 223.05016713 -223.85202803 220.72376401 -223.86401367 217.3425293 C-223.87039352 216.11821701 -223.87677338 214.89390472 -223.88334656 213.63249207 C-223.88487964 212.28494303 -223.88599123 210.93739346 -223.88671875 209.58984375 C-223.88994073 208.18626371 -223.89330547 206.78268399 -223.89680481 205.37910461 C-223.90280906 202.41573314 -223.90464447 199.4523908 -223.90405273 196.48901367 C-223.90397293 193.51336391 -223.91067018 190.53787286 -223.92456055 187.56225586 C-224.01745739 167.36904595 -223.40188946 147.39833729 -221.71875 127.265625 C-221.63443726 126.21734528 -221.55012451 125.16906555 -221.46325684 124.08901978 C-221.33896301 122.61397476 -221.33896301 122.61397476 -221.2121582 121.10913086 C-221.13979446 120.24517197 -221.06743073 119.38121307 -220.99287415 118.49107361 C-220.02512134 110.63447225 -214.76147443 104.04891845 -208.71875 99.265625 C-199.21410589 92.09890484 -185.00176802 94.11041389 -173.71875 94.265625 C-173.73853157 93.3395771 -173.73853157 93.3395771 -173.75871277 92.39482117 C-173.85349954 84.23026896 -173.27621988 76.16535911 -172.58203125 68.03515625 C-172.52207663 67.32708014 -172.462122 66.61900402 -172.40035057 65.88947105 C-172.08279642 62.15144846 -171.75880244 58.41404499 -171.42993164 54.67700195 C-171.09396302 50.84226932 -170.78255009 47.00594107 -170.4763155 43.16873646 C-170.23392451 40.191291 -169.97257275 37.21572096 -169.70622826 34.24033165 C-169.5830718 32.82689541 -169.46702853 31.41281891 -169.35857582 29.99817848 C-168.17535745 14.73231991 -168.17535745 14.73231991 -162.71875 9.265625 C-158.49621377 5.9717485 -154.6135653 5.8312622 -149.44702148 5.86157227 C-148.6267598 5.85470901 -147.80649811 5.84784576 -146.96138 5.84077454 C-144.25402413 5.82250103 -141.547248 5.82634757 -138.83984375 5.83203125 C-136.94759433 5.82746702 -135.05534657 5.82216072 -133.1631012 5.81614685 C-129.19452185 5.80721262 -125.22614366 5.80963927 -121.25756836 5.81958008 C-116.19954326 5.83102151 -111.14222134 5.81093427 -106.0842886 5.78166294 C-102.17289388 5.76320492 -98.26166429 5.76361325 -94.35023689 5.76930046 C-92.48732587 5.76945277 -90.62440299 5.76348438 -88.76153374 5.75100899 C-73.41327824 5.66276528 -60.85658949 7.38418442 -48.890625 17.8671875 C-44.97440811 21.87160747 -42.44382076 26.45532896 -39.98828125 31.4453125 C-39.64202698 32.14416565 -39.29577271 32.8430188 -38.93902588 33.56304932 C-35.00466352 41.59335636 -31.4769822 49.79265376 -27.96875 58.015625 C-27.33636917 59.48846667 -26.70355631 60.96112291 -26.0703125 62.43359375 C-24.36636185 66.39920997 -22.6686373 70.36746454 -20.97192383 74.33618164 C-18.66138252 79.73734764 -16.34613538 85.13649832 -14.03160858 90.53595734 C-12.70548866 93.62969982 -11.37961048 96.72354588 -10.05371094 99.81738281 C-9.60348572 100.86790833 -9.1532605 101.91843384 -8.68939209 103.00079346 C-8.3690802 103.74818787 -8.04876831 104.49558228 -7.71875 105.265625 C-7.70661972 103.33669907 -7.70661972 103.33669907 -7.69424438 101.36880493 C-7.61688901 89.27266647 -7.52917692 77.17664196 -7.43122292 65.08065224 C-7.38119477 58.8614082 -7.33486544 52.6421817 -7.296875 46.42285156 C-7.26010441 40.42518732 -7.2137672 34.42766749 -7.16068649 28.43012619 C-7.14209868 26.13753152 -7.1270071 23.84490584 -7.11540604 21.55226517 C-7.09861848 18.35060972 -7.06960193 15.1492882 -7.03759766 11.94775391 C-7.03435738 10.51385063 -7.03435738 10.51385063 -7.03105164 9.05097961 C-7.01988815 8.18157242 -7.00872467 7.31216522 -6.9972229 6.41641235 C-6.99169214 5.65869852 -6.98616138 4.90098469 -6.98046303 4.12030983 C-6.38284856 -0.11481175 -3.58747999 0.00944784 0 0 Z " fill="#FBFCFD" transform="translate(310.71875,112.734375)"/>
<path d="M0 0 C10.60125 -0.144375 21.2025 -0.28875 32.125 -0.4375 C37.10231201 -0.53309204 37.10231201 -0.53309204 42.18017578 -0.63061523 C44.85186796 -0.65108646 47.52358221 -0.6689176 50.1953125 -0.68359375 C50.86859589 -0.70188736 51.54187927 -0.72018097 52.23556519 -0.73902893 C63.04463003 -1.01742993 70.96054255 1.04850889 80 7 C85.12693157 11.9203853 87.82521041 18.31381136 90.625 24.75 C91.03814453 25.67941406 91.45128906 26.60882813 91.87695312 27.56640625 C93.26526134 30.7050112 94.63439798 33.85145173 96 37 C96.52561523 38.20720703 97.05123047 39.41441406 97.59277344 40.65820312 C99.2359886 44.43558999 100.87025216 48.21678509 102.5 52 C103.274646 53.79775879 103.274646 53.79775879 104.06494141 55.63183594 C104.54882324 56.76395508 105.03270508 57.89607422 105.53125 59.0625 C105.95986328 60.06410156 106.38847656 61.06570312 106.83007812 62.09765625 C108.00773543 65.01919006 109.00389576 68.01168728 110 71 C73.7 71 37.4 71 0 71 C0 47.57 0 24.14 0 0 Z " fill="#0565C8" transform="translate(167,136)"/>
<path d="M0 0 C9.57 0 19.14 0 29 0 C34.34801502 10.10994621 39.67269059 20.19843763 44.625 30.5078125 C45.75572571 33.11415524 45.75572571 33.11415524 48 34 C48.10054687 33.31067383 48.20109375 32.62134766 48.3046875 31.91113281 C49.13440183 28.43728673 50.51705272 25.61163141 52.125 22.421875 C52.43195801 21.80983215 52.73891602 21.19778931 53.05517578 20.56719971 C53.70128996 19.28166408 54.35026893 17.99756472 55.00195312 16.71484375 C56.00238895 14.7452969 56.99409801 12.77154615 57.984375 10.796875 C62.83623223 1.16376777 62.83623223 1.16376777 64 0 C73.9 0 83.8 0 94 0 C94 21.12 94 42.24 94 64 C88.06 64.99 88.06 64.99 82 66 C78.04 66.99 74.08 67.98 70 69 C69.67 59.1 69.34 49.2 69 39 C64.05 48.9 59.1 58.8 54 69 C49.38 69 44.76 69 40 69 C38.45392214 66.10645112 36.91313198 63.21027014 35.375 60.3125 C34.73498047 59.11657227 34.73498047 59.11657227 34.08203125 57.89648438 C30.43996468 51.02004526 27.27632685 44.09870817 24 37 C23.67 47.89 23.34 58.78 23 70 C15.41 70 7.82 70 0 70 C0 46.9 0 23.8 0 0 Z " fill="#0464C7" transform="translate(190,224)"/>
<path d="M0 0 C0.80050781 0.31839844 1.60101563 0.63679688 2.42578125 0.96484375 C11.52406461 4.96808843 15.42997543 10.98762168 19.23828125 19.921875 C22.05318222 27.60150227 21.99731031 36.36262277 19 44 C14.2300381 54.07340637 7.22258292 59.81217717 -3 64 C-10.99386902 66.42384382 -19.43344188 65.29250887 -27 62 C-35.26594357 57.20186639 -42.11698327 49.89454699 -45.33984375 40.83984375 C-47.4522204 31.75287439 -46.94687641 22.97683822 -42 15 C-41.5875 14.31421875 -41.175 13.6284375 -40.75 12.921875 C-31.65088768 -0.62339448 -15.35180534 -6.19976754 0 0 Z " fill="#F9FBFD" transform="translate(299,314)"/>
<path d="M0 0 C5.67041777 6.21045756 10.726541 13.33963949 11.625 21.875 C11.7178125 22.70515625 11.810625 23.5353125 11.90625 24.390625 C12.43933666 33.71964158 9.27260289 41.9473096 3.5 49.25 C-3.2618239 56.3528808 -11.88044813 59.91577329 -21.5625 60.1875 C-31.40795093 60.02912814 -38.126447 56.08873753 -45.171875 49.38671875 C-52.27381673 41.29000149 -53.74980411 32.86788559 -53.65234375 22.41796875 C-52.96337444 13.61662842 -47.85353776 6.14119329 -41.5625 0.1484375 C-28.54632404 -10.50593234 -13.61174998 -8.5703611 0 0 Z " fill="#F9FBFD" transform="translate(162.375,319.125)"/>
<path d="M0 0 C20.79 0 41.58 0 63 0 C63 6.27 63 12.54 63 19 C50.46 19 37.92 19 25 19 C25 22.96 25 26.92 25 31 C36.55 31 48.1 31 60 31 C60 37.27 60 43.54 60 50 C48.45 50 36.9 50 25 50 C25 55.28 25 60.56 25 66 C23.61425781 66.13277344 22.22851562 66.26554687 20.80078125 66.40234375 C18.97134127 66.58059688 17.14191489 66.75898962 15.3125 66.9375 C14.40048828 67.02451172 13.48847656 67.11152344 12.54882812 67.20117188 C11.66259766 67.28818359 10.77636719 67.37519531 9.86328125 67.46484375 C9.05157471 67.543396 8.23986816 67.62194824 7.40356445 67.70288086 C4.91704574 68.01025448 2.4567908 68.50864184 0 69 C0 46.23 0 23.46 0 0 Z " fill="#0767C9" transform="translate(120,224)"/>
<path d="M0 0 C0.69802734 0.00386719 1.39605469 0.00773438 2.11523438 0.01171875 C2.80939453 0.00785156 3.50355469 0.00398437 4.21875 0 C9.42445449 0.01007881 9.42445449 0.01007881 11.67773438 1.13671875 C11.67773438 21.26671875 11.67773438 41.39671875 11.67773438 62.13671875 C20.32283203 62.11931641 20.32283203 62.11931641 29.14257812 62.1015625 C32.78385529 62.09645573 36.42512806 62.09164196 40.06640625 62.08789062 C45.85181591 62.08190222 51.63720982 62.07480199 57.42260742 62.0612793 C62.08450557 62.05045028 66.74638683 62.04444189 71.40829659 62.04184151 C73.19097726 62.03998728 74.97365696 62.03636672 76.75633049 62.03098869 C79.24439398 62.02377806 81.73238681 62.02272782 84.22045898 62.02319336 C84.96492279 62.01959808 85.7093866 62.01600281 86.47640991 62.01229858 C91.56368221 62.02266659 91.56368221 62.02266659 92.67773438 63.13671875 C92.74978949 64.82280841 92.76159505 66.51172534 92.74023438 68.19921875 C92.73121094 69.11832031 92.7221875 70.03742188 92.71289062 70.984375 C92.70128906 71.69464844 92.6896875 72.40492188 92.67773438 73.13671875 C87.72644133 75.63172421 82.58238234 75.81184085 77.15039062 76.28515625 C76.10499619 76.38259628 75.05960175 76.48003632 73.98252869 76.58042908 C70.56900659 76.8974944 67.15465503 77.20449589 63.74023438 77.51171875 C59.02246762 77.94711092 54.30518989 78.38770048 49.58789062 78.828125 C47.82005722 78.99211037 47.82005722 78.99211037 46.01651001 79.15940857 C33.63334504 80.31362277 21.26825204 81.62362923 8.90454102 82.96826172 C8.16555069 83.04790665 7.42656036 83.12755157 6.66517639 83.20960999 C4.70821116 83.42072718 2.75155239 83.63467981 0.79492188 83.84887695 C-2.32226562 84.13671875 -2.32226562 84.13671875 -6.32226562 84.13671875 C-6.34538875 73.3321379 -6.36318055 62.52756289 -6.3740778 51.72296238 C-6.37930669 46.70649405 -6.38640445 41.6900426 -6.39770508 36.67358398 C-6.40853373 31.83662181 -6.41454241 26.99967591 -6.41714287 22.16270256 C-6.41899716 20.3130359 -6.42261784 18.46337018 -6.42799568 16.6137104 C-6.43520582 14.03224861 -6.43625658 11.45085493 -6.43579102 8.86938477 C-6.43938629 8.09686874 -6.44298157 7.32435272 -6.44668579 6.52842712 C-6.43449563 0.32323115 -6.24315944 0.01211088 0 0 Z " fill="#F8FAFC" transform="translate(344.322265625,238.86328125)"/>
<path d="M0 0 C3.98895907 2.07459605 6.50751232 4.04995134 8.03515625 8.2734375 C8.91805328 15.39179479 8.45283219 20.54239845 4.03515625 26.2734375 C0.408124 29.48595178 -3.06376077 29.80043402 -7.75 29.62109375 C-12.47295051 28.87974878 -15.09802928 26.45808394 -17.83984375 22.7109375 C-19.8619339 16.5323287 -20.1266725 10.68315638 -17.27734375 4.7734375 C-12.38365996 -0.51703146 -6.99087472 -2.58509483 0 0 Z " fill="#0564C7" transform="translate(291.96484375,330.7265625)"/>
<path d="M0 0 C3.42949055 2.01698455 6.20893285 4.4178657 8 8 C8.52081891 14.129638 8.84945688 19.90878284 5 25 C1.69614421 27.72333333 -1.2901281 28.87323716 -5.5 29.625 C-10.24285916 28.77806087 -12.78561068 26.48578895 -16 23 C-18.97764252 18.53353622 -18.61441495 14.23751281 -18 9 C-14.01806314 1.03612629 -8.68034658 -1.69080371 0 0 Z " fill="#0565C8" transform="translate(146,331)"/>
</svg>
