<svg xmlns="http://www.w3.org/2000/svg" xmlns:xlink="http://www.w3.org/1999/xlink" xmlns:lucid="lucid" width="1021" height="1379"><g transform="translate(225 -328)" lucid:page-tab-id="0_0"><path d="M-500 0h1500v2000H-500z" fill="#fff"/><path d="M-240 326a6 6 0 0 1 6-6H854a6 6 0 0 1 6 6v1448a6 6 0 0 1-6 6H-234a6 6 0 0 1-6-6z" stroke="#000" stroke-opacity="0" stroke-width="2" fill="#3a414a"/><path d="M-160 406a6 6 0 0 1 6-6h908a6 6 0 0 1 6 6v68a6 6 0 0 1-6 6h-908a6 6 0 0 1-6-6z" stroke="#000" stroke-opacity="0" stroke-width="2" fill="#cfe4ff"/><use xlink:href="#a" transform="matrix(1,0,0,1,-148,412) translate(281.641975308642 31.77777777777778)"/><use xlink:href="#b" transform="matrix(1,0,0,1,-148,412) translate(383.8641975308642 31.77777777777778)"/><use xlink:href="#c" transform="matrix(1,0,0,1,-148,412) translate(414.7283950617284 31.77777777777778)"/><use xlink:href="#d" transform="matrix(1,0,0,1,-148,412) translate(502.1358024691358 31.77777777777778)"/><path d="M350 1406.56a6 6 0 0 1 6-6h168a6 6 0 0 1 6 6v108a6 6 0 0 1-6 6H356a6 6 0 0 1-6-6z" stroke="#f2f3f5" stroke-width="2" fill-opacity="0"/><use xlink:href="#e" transform="matrix(1,0,0,1,362,1412.5625400309493) translate(13.56640625 55.48697916666667)"/><path d="M320 1576.56a6 6 0 0 1 6-6h228a6 6 0 0 1 6 6v88a6 6 0 0 1-6 6H326a6 6 0 0 1-6-6z" stroke="#f2f3f5" stroke-width="2" fill-opacity="0"/><use xlink:href="#f" transform="matrix(1,0,0,1,332,1582.5625400309493) translate(17.42057291666667 46.23697916666667)"/><path d="M250 1066.56a6 6 0 0 1 6-6h268a6 6 0 0 1 6 6v108a6 6 0 0 1-6 6H256a6 6 0 0 1-6-6z" stroke="#f2f3f5" stroke-width="2" fill-opacity="0"/><use xlink:href="#g" transform="matrix(1,0,0,1,262,1072.5625400309493) translate(19.536458333333343 55.48697916666667)"/><path d="M-160 1036a6 6 0 0 1 6-6h268a6 6 0 0 1 6 6v108a6 6 0 0 1-6 6h-268a6 6 0 0 1-6-6z" stroke="#f2f3f5" stroke-width="2" fill-opacity="0"/><use xlink:href="#h" transform="matrix(1,0,0,1,-148,1042) translate(47.72005208333333 55.48697916666667)"/><path d="M360 1236.56a6 6 0 0 1 6-6h148a6 6 0 0 1 6 6v108a6 6 0 0 1-6 6H366a6 6 0 0 1-6-6z" stroke="#f2f3f5" stroke-width="2" fill-opacity="0"/><use xlink:href="#i" transform="matrix(1,0,0,1,372,1242.5625400309493) translate(8.944010416666664 55.48697916666667)"/><path d="M-120 846a6 6 0 0 1 6-6H74a6 6 0 0 1 6 6v108a6 6 0 0 1-6 6h-188a6 6 0 0 1-6-6z" stroke="#f2f3f5" stroke-width="2" fill-opacity="0"/><use xlink:href="#j" transform="matrix(1,0,0,1,-108,852) translate(23.95052083333333 55.48697916666667)"/><path d="M240 726a6 6 0 0 1 6-6h188a6 6 0 0 1 6 6v108a6 6 0 0 1-6 6H246a6 6 0 0 1-6-6z" stroke="#f2f3f5" stroke-width="2" fill-opacity="0"/><use xlink:href="#k" transform="matrix(1,0,0,1,252,732) translate(60.29817708333333 55.48697916666667)"/><path d="M-20 586a6 6 0 0 1 6-6h188a6 6 0 0 1 6 6v108a6 6 0 0 1-6 6H-14a6 6 0 0 1-6-6z" stroke="#f2f3f5" stroke-width="2" fill-opacity="0"/><use xlink:href="#l" transform="matrix(1,0,0,1,-8,592) translate(43.3125 55.48697916666667)"/><path d="M500 586a6 6 0 0 1 6-6h188a6 6 0 0 1 6 6v108a6 6 0 0 1-6 6H506a6 6 0 0 1-6-6z" stroke="#f2f3f5" stroke-width="2" fill-opacity="0"/><use xlink:href="#m" transform="matrix(1,0,0,1,512,592) translate(35.740885416666664 55.48697916666667)"/><path d="M580 896.56a6 6 0 0 1 6-6h148a6 6 0 0 1 6 6v108a6 6 0 0 1-6 6H586a6 6 0 0 1-6-6z" stroke="#f2f3f5" stroke-width="2" fill-opacity="0"/><use xlink:href="#n" transform="matrix(1,0,0,1,592,902.5625400309493) translate(19.940104166666664 55.48697916666667)"/><path d="M358 1290.56h-4.1m-8.16 0h-8.17m-8.18 0h-8.18m-8.18 0h-8.17m-8.17 0h-8.18m-8.17 0h-8.17m-8.18 0h-8.17m-8.17 0h-8.18m-8.17 0h-8.17m-8.17 0h-8.17m-8.2 0h-8.16m-8.17 0h-8.18m-8.18 0h-8.17m-8.18 0h-8.17m-8.18 0h-8.17m-8.17 0h-8.18m-8.17 0h-8.17m-8.18 0H76m-8.17 0h-8.17m-8.17 0h-8.2m-8.16 0h-4.1a6 6 0 0 1-6-6v-4.1m0-8.23v-8.2m0-8.23v-8.22m0-8.22v-8.22m0-8.22v-8.22m0-8.2v-8.23m0-8.22v-8.22m0-8.22v-4.1" stroke="#fff" stroke-width="2" fill="none"/><path d="M359 1291.54h-1.03v-1.95H359z" stroke="#fff" stroke-width=".05" fill="#fff"/><path d="M25.05 1154.24l4.64 14.26H20.4z" stroke="#fff" stroke-width="2" fill="#fff"/><path d="M348 1460.56H-14a6 6 0 0 1-6-6V1169.5" stroke="#fff" stroke-width="2" fill="none"/><path d="M349 1461.54h-1.03v-1.95H349z" stroke="#fff" stroke-width=".05" fill="#fff"/><path d="M-20 1154.24l4.63 14.26h-9.27z" stroke="#fff" stroke-width="2" fill="#fff"/><path d="M578 950.56H226a6 6 0 0 0-6 6V1054a6 6 0 0 1-6 6h-75.5" stroke="#fff" stroke-width="2" fill="none"/><path d="M579 951.54h-1.03v-1.95H579z" stroke="#fff" stroke-width=".05" fill="#fff"/><path d="M123.24 1060l14.26-4.63v9.27z" stroke="#fff" stroke-width="2" fill="#fff"/><path d="M248 1120.56H139.5" stroke="#fff" stroke-width="2" fill="none"/><path d="M249 1121.54h-1.03v-1.95H249z" stroke="#fff" stroke-width=".05" fill="#fff"/><path d="M124.24 1120.56l14.26-4.63v9.27z" stroke="#fff" stroke-width="2" fill="#fff"/><path d="M9 1289.55a6 6 0 0 1 6-6H250.2a6 6 0 0 1 6 6v25.35a6 6 0 0 1-6 6H15a6 6 0 0 1-6-6z" fill="none"/><use xlink:href="#o" transform="matrix(1,0,0,1,13.991260609567817,1288.5467891628937) translate(0 22.08648003472222)"/><use xlink:href="#p" transform="matrix(1,0,0,1,13.991260609567817,1288.5467891628937) translate(93.8031684027778 22.08648003472222)"/><use xlink:href="#q" transform="matrix(1,0,0,1,13.991260609567817,1288.5467891628937) translate(135.85286458333337 22.08648003472222)"/><path d="M-20 1028v-48.5" stroke="#fff" stroke-width="2" fill="none"/><path d="M-19.02 1029h-1.96v-1.03h1.96z" stroke="#fff" stroke-width=".05" fill="#fff"/><path d="M-20 964.24l4.63 14.26h-9.27z" stroke="#fff" stroke-width="2" fill="#fff"/><path d="M-20 838v-52a6 6 0 0 1 6-6h234.5" stroke="#fff" stroke-width="2" fill="none"/><path d="M-19.02 839h-1.96v-1.03h1.96z" stroke="#fff" stroke-width=".05" fill="#fff"/><path d="M235.76 780l-14.26 4.63v-9.26z" stroke="#fff" stroke-width="2" fill="#fff"/><path d="M442 780h212a6 6 0 0 1 6 6v85.06" stroke="#fff" stroke-width="2" fill="none"/><path d="M442.03 780.98H441V779h1.03z" stroke="#fff" stroke-width=".05" fill="#fff"/><path d="M660 886.33l-4.63-14.27h9.26z" stroke="#fff" stroke-width="2" fill="#fff"/><path d="M660 1012.56v102a6 6 0 0 1-6 6H549.5" stroke="#fff" stroke-width="2" fill="none"/><path d="M660.98 1012.6H659v-1.04H661z" stroke="#fff" stroke-width=".05" fill="#fff"/><path d="M534.24 1120.56l14.26-4.63v9.27z" stroke="#fff" stroke-width="2" fill="#fff"/><path d="M660 1012.56v272a6 6 0 0 1-6 6H539.5" stroke="#fff" stroke-width="2" fill="none"/><path d="M660.98 1012.6H659v-1.04H661z" stroke="#fff" stroke-width=".05" fill="#fff"/><path d="M524.24 1290.56l14.26-4.63v9.27z" stroke="#fff" stroke-width="2" fill="#fff"/><path d="M660 1012.56v442a6 6 0 0 1-6 6H549.5" stroke="#fff" stroke-width="2" fill="none"/><path d="M660.98 1012.6H659v-1.04H661z" stroke="#fff" stroke-width=".05" fill="#fff"/><path d="M534.24 1460.56l14.26-4.63v9.27z" stroke="#fff" stroke-width="2" fill="#fff"/><path d="M440 1522.56v28.5" stroke="#fff" stroke-width="2" fill="none"/><path d="M440.98 1522.6h-1.96v-1.04h1.96z" stroke="#fff" stroke-width=".05" fill="#fff"/><path d="M440 1566.33l-4.63-14.27h9.26z" stroke="#fff" stroke-width="2" fill="#fff"/><path d="M340 718v-72a6 6 0 0 0-6-6H199.5" stroke="#fff" stroke-width="2" fill="none"/><path d="M340.98 719h-1.96v-1.03h1.96z" stroke="#fff" stroke-width=".05" fill="#fff"/><path d="M184.24 640l14.26-4.63v9.26z" stroke="#fff" stroke-width="2" fill="#fff"/><path d="M340 700.5V646a6 6 0 0 1 6-6h134.5" stroke="#fff" stroke-width="2" fill="none"/><path d="M340 715.76l-4.63-14.26h9.26zM495.76 640l-14.26 4.63v-9.26z" stroke="#fff" stroke-width="2" fill="#fff"/><path d="M530 1086a6 6 0 0 1 6-6h107.58a6 6 0 0 1 6 6v24.68a6 6 0 0 1-6 6H536a6 6 0 0 1-6-6z" fill="none"/><use xlink:href="#r" transform="matrix(1,0,0,1,535,1085) translate(0 17.944444444444443)"/><path d="M530 1126a6 6 0 0 1 6-6h33.7a6 6 0 0 1 6 6v24.68a6 6 0 0 1-6 6H536a6 6 0 0 1-6-6z" fill="none"/><use xlink:href="#s" transform="matrix(1,0,0,1,535,1125) translate(0 17.944444444444443)"/><path d="M520 1266a6 6 0 0 1 6-6h86.6a6 6 0 0 1 6 6v24.68a6 6 0 0 1-6 6H526a6 6 0 0 1-6-6z" fill="none"/><use xlink:href="#t" transform="matrix(1,0,0,1,525,1265) translate(0 17.944444444444443)"/><path d="M520 1302.68a6 6 0 0 1 6-6h33.7a6 6 0 0 1 6 6v24.67a6 6 0 0 1-6 6H526a6 6 0 0 1-6-6z" fill="none"/><use xlink:href="#s" transform="matrix(1,0,0,1,525,1301.6766666666667) translate(0 17.944444444444443)"/><path d="M530 1429.9a6 6 0 0 1 6-6h86.6a6 6 0 0 1 6 6v24.66a6 6 0 0 1-6 6H536a6 6 0 0 1-6-6z" fill="none"/><use xlink:href="#t" transform="matrix(1,0,0,1,535,1428.8858733642826) translate(0 17.944444444444443)"/><path d="M530 1466.56a6 6 0 0 1 6-6h33.7a6 6 0 0 1 6 6v24.68a6 6 0 0 1-6 6H536a6 6 0 0 1-6-6z" fill="none"/><use xlink:href="#s" transform="matrix(1,0,0,1,535.0000000000001,1465.5625400309493) translate(0 17.944444444444443)"/><path d="M280 1526.56a6 6 0 0 1 6-6h150.9a6 6 0 0 1 6 6v24.68a6 6 0 0 1-6 6H286a6 6 0 0 1-6-6z" fill="none"/><use xlink:href="#u" transform="matrix(1,0,0,1,284.99999999999994,1525.5625400309493) translate(0 17.944444444444443)"/><use xlink:href="#v" transform="matrix(1,0,0,1,284.99999999999994,1525.5625400309493) translate(36.97530864197531 17.944444444444443)"/><path d="M442.9 1526.56a6 6 0 0 1 6-6h33.7a6 6 0 0 1 6 6v24.68a6 6 0 0 1-6 6h-33.7a6 6 0 0 1-6-6z" fill="none"/><use xlink:href="#w" transform="matrix(1,0,0,1,447.91123456790126,1525.5625400309493) translate(0 17.944444444444443)"/><path d="M256.23 1429.9a6 6 0 0 1 6-6H344a6 6 0 0 1 6 6v24.66a6 6 0 0 1-6 6h-81.77a6 6 0 0 1-6-6z" fill="none"/><use xlink:href="#x" transform="matrix(1,0,0,1,261.2245679012345,1428.8858733642826) translate(0 17.944444444444443)"/><path d="M307.95 1466.56a6 6 0 0 1 6-6H344a6 6 0 0 1 6 6v24.68a6 6 0 0 1-6 6h-30.05a6 6 0 0 1-6-6z" fill="none"/><use xlink:href="#y" transform="matrix(1,0,0,1,312.9529629629629,1465.5625400309493) translate(0 17.944444444444443)"/><path d="M266.23 1259.9a6 6 0 0 1 6-6H354a6 6 0 0 1 6 6v24.66a6 6 0 0 1-6 6h-81.77a6 6 0 0 1-6-6z" fill="none"/><use xlink:href="#x" transform="matrix(1,0,0,1,271.22456790123454,1258.8858733642826) translate(0 17.944444444444443)"/><path d="M317.95 1296.56a6 6 0 0 1 6-6H354a6 6 0 0 1 6 6v24.68a6 6 0 0 1-6 6h-30.05a6 6 0 0 1-6-6z" fill="none"/><use xlink:href="#y" transform="matrix(1,0,0,1,322.9529629629629,1295.5625400309493) translate(0 17.944444444444443)"/><path d="M156.22 1089.9a6 6 0 0 1 6-6H244a6 6 0 0 1 6 6v24.66a6 6 0 0 1-6 6h-81.78a6 6 0 0 1-6-6z" fill="none"/><use xlink:href="#x" transform="matrix(1,0,0,1,161.22456790123448,1088.8858733642826) translate(0 17.944444444444443)"/><path d="M207.95 1126.56a6 6 0 0 1 6-6H244a6 6 0 0 1 6 6v24.68a6 6 0 0 1-6 6h-30.05a6 6 0 0 1-6-6z" fill="none"/><use xlink:href="#y" transform="matrix(1,0,0,1,212.95296296296289,1125.5625400309493) translate(0 17.944444444444443)"/><path d="M240 919.9a6 6 0 0 1 6-6h222.33a6 6 0 0 1 6 6v24.66a6 6 0 0 1-6 6H246a6 6 0 0 1-6-6z" fill="none"/><use xlink:href="#z" transform="matrix(1,0,0,1,244.99999999999991,918.8858733642826) translate(0 17.944444444444443)"/><use xlink:href="#A" transform="matrix(1,0,0,1,244.99999999999991,918.8858733642826) translate(82.5925925925926 17.944444444444443)"/><path d="M250 956.56a6 6 0 0 1 6-6h33.7a6 6 0 0 1 6 6v24.68a6 6 0 0 1-6 6H256a6 6 0 0 1-6-6z" fill="none"/><use xlink:href="#s" transform="matrix(1,0,0,1,254.99999999999997,955.5625400309491) translate(0 17.944444444444443)"/><path d="M-99.02 993.24a6 6 0 0 1 6-6H-26a6 6 0 0 1 6 6v24.68a6 6 0 0 1-6 6h-67.02a6 6 0 0 1-6-6z" fill="none"/><use xlink:href="#B" transform="matrix(1,0,0,1,-94.02234567901235,992.2392066976158) translate(0 17.944444444444443)"/><path d="M-20 993.24a6 6 0 0 1 6-6h30.05a6 6 0 0 1 6 6v24.68a6 6 0 0 1-6 6H-14a6 6 0 0 1-6-6z" fill="none"/><use xlink:href="#y" transform="matrix(1,0,0,1,-14.99999999999999,992.2392066976158) translate(0 17.944444444444443)"/><path d="M140.93 749.32a6 6 0 0 1 6-6h64.5a6 6 0 0 1 6 6V774a6 6 0 0 1-6 6h-64.5a6 6 0 0 1-6-6z" fill="none"/><use xlink:href="#C" transform="matrix(1,0,0,1,145.92592592592587,748.3233333333334) translate(0 17.944444444444443)"/><path d="M171.73 786a6 6 0 0 1 6-6h33.7a6 6 0 0 1 6 6v24.68a6 6 0 0 1-6 6h-33.7a6 6 0 0 1-6-6z" fill="none"/><use xlink:href="#s" transform="matrix(1,0,0,1,176.72839506172838,785) translate(0 17.944444444444443)"/><path d="M192.12 609.32a6 6 0 0 1 6-6h86.58a6 6 0 0 1 6 6V634a6 6 0 0 1-6 6h-86.58a6 6 0 0 1-6-6z" fill="none"/><use xlink:href="#t" transform="matrix(1,0,0,1,197.11462962962952,608.3233333333333) translate(0 17.944444444444443)"/><path d="M192.12 646a6 6 0 0 1 6-6h33.68a6 6 0 0 1 6 6v24.68a6 6 0 0 1-6 6H198.1a6 6 0 0 1-5.98-6z" fill="none"/><use xlink:href="#s" transform="matrix(1,0,0,1,197.11462962962955,645) translate(0 17.944444444444443)"/><path d="M420 609.32a6 6 0 0 1 6-6h67.02a6 6 0 0 1 6 6V634a6 6 0 0 1-6 6H426a6 6 0 0 1-6-6z" fill="none"/><use xlink:href="#B" transform="matrix(1,0,0,1,425.00000000000006,608.3233333333333) translate(0 17.944444444444443)"/><path d="M453.33 646a6 6 0 0 1 6-6h33.7a6 6 0 0 1 6 6v24.68a6 6 0 0 1-6 6h-33.7a6 6 0 0 1-6-6z" fill="none"/><g><use xlink:href="#s" transform="matrix(1,0,0,1,458.33333333333337,644.9999999999999) translate(0 17.944444444444443)"/></g><path d="M442.9 749.32a6 6 0 0 1 6-6h86.6a6 6 0 0 1 6 6V774a6 6 0 0 1-6 6h-86.6a6 6 0 0 1-6-6z" fill="none"/><g><use xlink:href="#t" transform="matrix(1,0,0,1,447.9112345679013,748.3233333333332) translate(0 17.944444444444443)"/></g><path d="M442.9 786a6 6 0 0 1 6-6h33.7a6 6 0 0 1 6 6v24.68a6 6 0 0 1-6 6h-33.7a6 6 0 0 1-6-6z" fill="none"/><g><use xlink:href="#s" transform="matrix(1,0,0,1,447.9112345679014,784.9999999999999) translate(0 17.944444444444443)"/></g><defs><path d="M30-248c118-7 216 8 213 122C240-48 200 0 122 0H30v-248zM63-27c89 8 146-16 146-99s-60-101-146-95v194" id="D"/><path d="M24-231v-30h32v30H24zM24 0v-190h32V0H24" id="E"/><path d="M141-36C126-15 110 5 73 4 37 3 15-17 15-53c-1-64 63-63 125-63 3-35-9-54-41-54-24 1-41 7-42 31l-33-3c5-37 33-52 76-52 45 0 72 20 72 64v82c-1 20 7 32 28 27v20c-31 9-61-2-59-35zM48-53c0 20 12 33 32 33 41-3 63-29 60-74-43 2-92-5-92 41" id="F"/><path d="M177-190C167-65 218 103 67 71c-23-6-38-20-44-43l32-5c15 47 100 32 89-28v-30C133-14 115 1 83 1 29 1 15-40 15-95c0-56 16-97 71-98 29-1 48 16 59 35 1-10 0-23 2-32h30zM94-22c36 0 50-32 50-73 0-42-14-75-50-75-39 0-46 34-46 75s6 73 46 73" id="G"/><path d="M114-163C36-179 61-72 57 0H25l-1-190h30c1 12-1 29 2 39 6-27 23-49 58-41v29" id="H"/><path d="M210-169c-67 3-38 105-44 169h-31v-121c0-29-5-50-35-48C34-165 62-65 56 0H25l-1-190h30c1 10-1 24 2 32 10-44 99-50 107 0 11-21 27-35 58-36 85-2 47 119 55 194h-31v-121c0-29-5-49-35-48" id="I"/><g id="a"><use transform="matrix(0.06172839506172839,0,0,0.06172839506172839,0,0)" xlink:href="#D"/><use transform="matrix(0.06172839506172839,0,0,0.06172839506172839,15.987654320987653,0)" xlink:href="#E"/><use transform="matrix(0.06172839506172839,0,0,0.06172839506172839,20.864197530864196,0)" xlink:href="#F"/><use transform="matrix(0.06172839506172839,0,0,0.06172839506172839,33.20987654320987,0)" xlink:href="#G"/><use transform="matrix(0.06172839506172839,0,0,0.06172839506172839,45.55555555555555,0)" xlink:href="#H"/><use transform="matrix(0.06172839506172839,0,0,0.06172839506172839,52.90123456790123,0)" xlink:href="#F"/><use transform="matrix(0.06172839506172839,0,0,0.06172839506172839,65.24691358024691,0)" xlink:href="#I"/><use transform="matrix(0.06172839506172839,0,0,0.06172839506172839,83.7037037037037,0)" xlink:href="#F"/></g><path d="M85-194c31 0 48 13 60 33l-1-100h32l1 261h-30c-2-10 0-23-3-31C134-8 116 4 85 4 32 4 16-35 15-94c0-66 23-100 70-100zm9 24c-40 0-46 34-46 75 0 40 6 74 45 74 42 0 51-32 51-76 0-42-9-74-50-73" id="J"/><path d="M100-194c63 0 86 42 84 106H49c0 40 14 67 53 68 26 1 43-12 49-29l28 8c-11 28-37 45-77 45C44 4 14-33 15-96c1-61 26-98 85-98zm52 81c6-60-76-77-97-28-3 7-6 17-6 28h103" id="K"/><g id="b"><use transform="matrix(0.06172839506172839,0,0,0.06172839506172839,0,0)" xlink:href="#J"/><use transform="matrix(0.06172839506172839,0,0,0.06172839506172839,12.345679012345679,0)" xlink:href="#K"/></g><path d="M100-194c62-1 85 37 85 99 1 63-27 99-86 99S16-35 15-95c0-66 28-99 85-99zM99-20c44 1 53-31 53-75 0-43-8-75-51-75s-53 32-53 75 10 74 51 75" id="L"/><path d="M117-194c89-4 53 116 60 194h-32v-121c0-31-8-49-39-48C34-167 62-67 57 0H25l-1-190h30c1 10-1 24 2 32 11-22 29-35 61-36" id="M"/><g id="c"><use transform="matrix(0.06172839506172839,0,0,0.06172839506172839,0,0)" xlink:href="#D"/><use transform="matrix(0.06172839506172839,0,0,0.06172839506172839,15.987654320987653,0)" xlink:href="#L"/><use transform="matrix(0.06172839506172839,0,0,0.06172839506172839,28.333333333333332,0)" xlink:href="#I"/><use transform="matrix(0.06172839506172839,0,0,0.06172839506172839,46.79012345679012,0)" xlink:href="#E"/><use transform="matrix(0.06172839506172839,0,0,0.06172839506172839,51.666666666666664,0)" xlink:href="#M"/><use transform="matrix(0.06172839506172839,0,0,0.06172839506172839,64.01234567901234,0)" xlink:href="#E"/><use transform="matrix(0.06172839506172839,0,0,0.06172839506172839,68.88888888888889,0)" xlink:href="#L"/></g><path d="M212-179c-10-28-35-45-73-45-59 0-87 40-87 99 0 60 29 101 89 101 43 0 62-24 78-52l27 14C228-24 195 4 139 4 59 4 22-46 18-125c-6-104 99-153 187-111 19 9 31 26 39 46" id="N"/><path d="M96-169c-40 0-48 33-48 73s9 75 48 75c24 0 41-14 43-38l32 2c-6 37-31 61-74 61-59 0-76-41-82-99-10-93 101-131 147-64 4 7 5 14 7 22l-32 3c-4-21-16-35-41-35" id="O"/><path d="M115-194c55 1 70 41 70 98S169 2 115 4C84 4 66-9 55-30l1 105H24l-1-265h31l2 30c10-21 28-34 59-34zm-8 174c40 0 45-34 45-75s-6-73-45-74c-42 0-51 32-51 76 0 43 10 73 51 73" id="P"/><path d="M59-47c-2 24 18 29 38 22v24C64 9 27 4 27-40v-127H5v-23h24l9-43h21v43h35v23H59v120" id="Q"/><path d="M84 4C-5 8 30-112 23-190h32v120c0 31 7 50 39 49 72-2 45-101 50-169h31l1 190h-30c-1-10 1-25-2-33-11 22-28 36-60 37" id="R"/><path d="M24 0v-261h32V0H24" id="S"/><g id="d"><use transform="matrix(0.06172839506172839,0,0,0.06172839506172839,0,0)" xlink:href="#N"/><use transform="matrix(0.06172839506172839,0,0,0.06172839506172839,15.987654320987653,0)" xlink:href="#L"/><use transform="matrix(0.06172839506172839,0,0,0.06172839506172839,28.333333333333332,0)" xlink:href="#M"/><use transform="matrix(0.06172839506172839,0,0,0.06172839506172839,40.67901234567901,0)" xlink:href="#O"/><use transform="matrix(0.06172839506172839,0,0,0.06172839506172839,51.79012345679013,0)" xlink:href="#K"/><use transform="matrix(0.06172839506172839,0,0,0.06172839506172839,64.13580246913581,0)" xlink:href="#P"/><use transform="matrix(0.06172839506172839,0,0,0.06172839506172839,76.4814814814815,0)" xlink:href="#Q"/><use transform="matrix(0.06172839506172839,0,0,0.06172839506172839,82.65432098765433,0)" xlink:href="#R"/><use transform="matrix(0.06172839506172839,0,0,0.06172839506172839,95.00000000000001,0)" xlink:href="#F"/><use transform="matrix(0.06172839506172839,0,0,0.06172839506172839,107.3456790123457,0)" xlink:href="#S"/></g><path fill="#fff" d="M201-496c-5 191 137 352 324 352 67 0 125-17 175-51L564-341l127-108c26 29 65 73 118 131 27-53 40-113 40-178v-367c4-191-136-352-324-352-187 0-324 162-324 352v367zm324-884c275 0 490 253 490 533v335c0 108-42 259-93 315l93 100V21H897c-30-33-57-63-87-95-87 63-182 95-285 95C250 21 36-232 36-512v-335c-8-279 214-533 489-533" id="T"/><path fill="#fff" d="M470-144c172 0 264-158 264-340v-486h165V0H734v-96C656-18 568 21 470 21 202 21 46-186 46-463v-507h165v507c-4 167 99 319 259 319" id="U"/><path fill="#fff" d="M233-1172c-50 0-96-44-96-94 0-49 46-93 96-93s96 43 96 93c0 52-44 94-96 94zM26-970h289V0H150v-805H26v-165" id="V"/><path fill="#fff" d="M30-484c0-265 224-507 485-507 196 0 345 102 446 305H770c-63-93-148-140-255-140-177 0-319 167-319 342 0 176 146 340 319 340 93 0 176-43 249-128h193C846-77 699 21 515 21 254 21 30-224 30-484" id="W"/><path fill="#fff" d="M218-698l409-308 109 126-324 249C497-490 624-280 795 0H598L276-530l-58 45V0H51v-1357h167v659" id="X"/><path fill="#fff" d="M525 21C250 26 36-232 36-512v-335c-8-279 214-533 489-533 269 0 443 204 484 450H844c-26-159-149-285-319-285-187 0-324 162-324 352v367c-5 191 137 352 324 352 171 0 294-127 319-285h165C968-183 794 16 525 21" id="Y"/><path fill="#fff" d="M528-826c-169 0-310 170-310 342V0H53v-1357h165v515c80-99 183-149 310-149 256 0 429 236 429 499V0H792v-484c3-179-95-342-264-342" id="Z"/><path fill="#fff" d="M816-616c-46-109-154-210-294-210-133 0-258 109-301 210h595zM31-484c0-260 230-507 491-507 282 0 495 254 487 541H196c10 148 163 311 326 306 147-5 277-104 326-215l166 28C947-150 753 16 522 21 260 27 31-223 31-484" id="aa"/><g id="e"><use transform="matrix(0.013020833333333334,0,0,0.013020833333333334,0,0)" xlink:href="#T"/><use transform="matrix(0.013020833333333334,0,0,0.013020833333333334,15.221354166666668,0)" xlink:href="#U"/><use transform="matrix(0.013020833333333334,0,0,0.013020833333333334,29.153645833333336,0)" xlink:href="#V"/><use transform="matrix(0.013020833333333334,0,0,0.013020833333333334,34.75260416666667,0)" xlink:href="#W"/><use transform="matrix(0.013020833333333334,0,0,0.013020833333333334,48.39843750000001,0)" xlink:href="#X"/><use transform="matrix(0.013020833333333334,0,0,0.013020833333333334,59.77864583333335,0)" xlink:href="#Y"/><use transform="matrix(0.013020833333333334,0,0,0.013020833333333334,74.54427083333334,0)" xlink:href="#Z"/><use transform="matrix(0.013020833333333334,0,0,0.013020833333333334,88.80208333333334,0)" xlink:href="#aa"/><use transform="matrix(0.013020833333333334,0,0,0.013020833333333334,103.84114583333334,0)" xlink:href="#W"/><use transform="matrix(0.013020833333333334,0,0,0.013020833333333334,117.48697916666667,0)" xlink:href="#X"/></g><path fill="#fff" d="M28-165h167v-1028H28v-164h505v164H362v1028h171V0H28v-165" id="ab"/><path fill="#fff" d="M395 0C260 4 152-110 152-245v-560H6v-165c76 0 121-15 136-44 7-13 10-65 10-156h165v200h235v165H317v560c-9 115 138 72 235 80V0H395" id="ac"/><path fill="#fff" d="M1018-991c257 0 359 224 359 507V0h-166v-484c0-228-64-342-193-342-155-1-215 166-215 342V0H637l-1-484c0-228-64-342-193-342-159-1-225 164-225 342V0H53v-970h165v68c59-59 134-89 225-89 133 0 229 56 286 168 46-112 142-168 289-168" id="ad"/><g id="f"><use transform="matrix(0.013020833333333334,0,0,0.013020833333333334,0,0)" xlink:href="#T"/><use transform="matrix(0.013020833333333334,0,0,0.013020833333333334,15.221354166666668,0)" xlink:href="#U"/><use transform="matrix(0.013020833333333334,0,0,0.013020833333333334,29.153645833333336,0)" xlink:href="#V"/><use transform="matrix(0.013020833333333334,0,0,0.013020833333333334,34.75260416666667,0)" xlink:href="#W"/><use transform="matrix(0.013020833333333334,0,0,0.013020833333333334,48.39843750000001,0)" xlink:href="#X"/><use transform="matrix(0.013020833333333334,0,0,0.013020833333333334,59.77864583333335,0)" xlink:href="#Y"/><use transform="matrix(0.013020833333333334,0,0,0.013020833333333334,74.54427083333334,0)" xlink:href="#Z"/><use transform="matrix(0.013020833333333334,0,0,0.013020833333333334,88.80208333333334,0)" xlink:href="#aa"/><use transform="matrix(0.013020833333333334,0,0,0.013020833333333334,103.84114583333334,0)" xlink:href="#W"/><use transform="matrix(0.013020833333333334,0,0,0.013020833333333334,117.48697916666667,0)" xlink:href="#X"/><use transform="matrix(0.013020833333333334,0,0,0.013020833333333334,128.8671875,0)" xlink:href="#ab"/><use transform="matrix(0.013020833333333334,0,0,0.013020833333333334,137.2265625,0)" xlink:href="#ac"/><use transform="matrix(0.013020833333333334,0,0,0.013020833333333334,145.5859375,0)" xlink:href="#aa"/><use transform="matrix(0.013020833333333334,0,0,0.013020833333333334,160.625,0)" xlink:href="#ad"/></g><path fill="#fff" d="M218-1036V0H51v-1357h194l393 787 393-787h200V0h-169v-1036L724-363H556" id="ae"/><path fill="#fff" d="M484-144c91 0 275-43 275-120v-184c-54 18-283 13-339 27-84 21-172 73-172 157 0 80 79 120 236 120zm27-847c168 0 413 106 413 260v563c0 15 16 23 48 26-4 64-6 118-6 163-81-4-138-29-172-76-80 51-181 76-304 76C213 21 75-75 75-266c0-155 132-276 270-302-15-8 340-16 395-49 13-7 20-20 21-39-1 24-2 8-2-49 0-71-154-124-234-124-152 0-248 58-288 173L79-690c32-191 203-301 432-301" id="af"/><path fill="#fff" d="M530-826c-179 0-312 160-312 342V0H53v-970h165v127c78-99 182-148 312-148 289 0 456 203 456 499V0H819v-484c2-203-95-342-289-342" id="ag"/><path fill="#fff" d="M651-670c-28-91-69-228-123-411-28 91-70 228-125 411h248zM849 0L698-503H353C289-288 238-121 201 0H29l407-1357h185L1027 0H849" id="ah"/><path fill="#fff" d="M125-1357h167V0H125v-1357" id="ai"/><path fill="#fff" d="M535-805c-177 0-317 145-317 321V0H51v-970h167v134c85-89 189-134 310-134h218v218c-83-35-153-53-211-53" id="aj"/><g id="g"><use transform="matrix(0.013020833333333334,0,0,0.013020833333333334,0,0)" xlink:href="#ae"/><use transform="matrix(0.013020833333333334,0,0,0.013020833333333334,18.5546875,0)" xlink:href="#af"/><use transform="matrix(0.013020833333333334,0,0,0.013020833333333334,32.825520833333336,0)" xlink:href="#V"/><use transform="matrix(0.013020833333333334,0,0,0.013020833333333334,38.42447916666667,0)" xlink:href="#ag"/><use transform="matrix(0.013020833333333334,0,0,0.013020833333333334,53.359375,0)" xlink:href="#ac"/><use transform="matrix(0.013020833333333334,0,0,0.013020833333333334,61.71875,0)" xlink:href="#aa"/><use transform="matrix(0.013020833333333334,0,0,0.013020833333333334,76.7578125,0)" xlink:href="#ag"/><use transform="matrix(0.013020833333333334,0,0,0.013020833333333334,91.69270833333333,0)" xlink:href="#af"/><use transform="matrix(0.013020833333333334,0,0,0.013020833333333334,105.96354166666666,0)" xlink:href="#ag"/><use transform="matrix(0.013020833333333334,0,0,0.013020833333333334,120.89843749999999,0)" xlink:href="#W"/><use transform="matrix(0.013020833333333334,0,0,0.013020833333333334,134.54427083333331,0)" xlink:href="#aa"/><use transform="matrix(0.013020833333333334,0,0,0.013020833333333334,149.58333333333331,0)" xlink:href="#ah"/><use transform="matrix(0.013020833333333334,0,0,0.013020833333333334,164.94791666666666,0)" xlink:href="#ai"/><use transform="matrix(0.013020833333333334,0,0,0.013020833333333334,170.57291666666666,0)" xlink:href="#af"/><use transform="matrix(0.013020833333333334,0,0,0.013020833333333334,184.84375,0)" xlink:href="#aj"/><use transform="matrix(0.013020833333333334,0,0,0.013020833333333334,196.39322916666666,0)" xlink:href="#ad"/></g><path fill="#fff" d="M861-1357v165H218v378h516v165H218v484h643V0H53v-1357h808" id="ak"/><path fill="#fff" d="M187-970l311 757c69-168 171-420 308-757h181L592 0H399L3-970h184" id="al"/><g id="h"><use transform="matrix(0.013020833333333334,0,0,0.013020833333333334,0,0)" xlink:href="#ae"/><use transform="matrix(0.013020833333333334,0,0,0.013020833333333334,18.5546875,0)" xlink:href="#af"/><use transform="matrix(0.013020833333333334,0,0,0.013020833333333334,32.825520833333336,0)" xlink:href="#W"/><use transform="matrix(0.013020833333333334,0,0,0.013020833333333334,46.47135416666667,0)" xlink:href="#Z"/><use transform="matrix(0.013020833333333334,0,0,0.013020833333333334,60.546875,0)" xlink:href="#V"/><use transform="matrix(0.013020833333333334,0,0,0.013020833333333334,66.14583333333334,0)" xlink:href="#ag"/><use transform="matrix(0.013020833333333334,0,0,0.013020833333333334,81.08072916666667,0)" xlink:href="#aa"/><use transform="matrix(0.013020833333333334,0,0,0.013020833333333334,96.11979166666667,0)" xlink:href="#ak"/><use transform="matrix(0.013020833333333334,0,0,0.013020833333333334,108.80208333333334,0)" xlink:href="#al"/><use transform="matrix(0.013020833333333334,0,0,0.013020833333333334,122.2265625,0)" xlink:href="#aa"/><use transform="matrix(0.013020833333333334,0,0,0.013020833333333334,137.265625,0)" xlink:href="#ag"/><use transform="matrix(0.013020833333333334,0,0,0.013020833333333334,152.20052083333334,0)" xlink:href="#ac"/></g><path fill="#fff" d="M32-990c0-232 243-390 485-390 230 0 384 80 460 242 25 53 37 112 37 177H848c0-169-110-254-331-254-175 0-321 66-320 224 0 68 25 124 82 157 72 43 313 83 425 114 184 50 303 136 310 344 8 234-251 397-495 397C251 21 32-142 31-398h166c5 169 112 254 321 254 161 0 330-78 330-223 0-98-70-169-211-207-131-36-266-59-393-103C99-727 32-841 32-990" id="am"/><path fill="#fff" d="M223-484c0 174 142 340 313 340 169 0 319-168 319-340 0-174-147-342-319-342-173 0-313 166-313 342zm798 0c0 261-225 505-485 505-129 0-235-50-318-149v516H53V-970h165v128c83-99 189-149 318-149 260 0 485 246 485 507" id="an"/><path fill="#fff" d="M812-932c0-173-180-260-368-260H218v524h226c185 4 368-93 368-264zm166 0c0 250-274 437-534 429H218V0H51v-1357h393c258-7 534 177 534 425" id="ao"/><g id="i"><use transform="matrix(0.013020833333333334,0,0,0.013020833333333334,0,0)" xlink:href="#am"/><use transform="matrix(0.013020833333333334,0,0,0.013020833333333334,15.0390625,0)" xlink:href="#an"/><use transform="matrix(0.013020833333333334,0,0,0.013020833333333334,29.921875,0)" xlink:href="#af"/><use transform="matrix(0.013020833333333334,0,0,0.013020833333333334,44.192708333333336,0)" xlink:href="#aj"/><use transform="matrix(0.013020833333333334,0,0,0.013020833333333334,54.70052083333335,0)" xlink:href="#aa"/><use transform="matrix(0.013020833333333334,0,0,0.013020833333333334,69.73958333333334,0)" xlink:href="#ao"/><use transform="matrix(0.013020833333333334,0,0,0.013020833333333334,83.93229166666667,0)" xlink:href="#af"/><use transform="matrix(0.013020833333333334,0,0,0.013020833333333334,98.203125,0)" xlink:href="#aj"/><use transform="matrix(0.013020833333333334,0,0,0.013020833333333334,109.75260416666667,0)" xlink:href="#ac"/></g><path fill="#fff" d="M232-1357L851-309v-1048h168V0H839L218-1054V0H51v-1357h181" id="ap"/><path fill="#fff" d="M838-484c0-173-151-342-322-342-177 0-319 167-319 342 0 176 146 340 319 340 171 0 322-167 322-340zm-807 0c0-265 224-507 485-507 260 0 487 246 487 507 0 260-229 505-487 505C255 21 31-224 31-484" id="aq"/><path fill="#fff" d="M439-1189c-122 0-183 48-183 143v76h183v165H256V0H89v-805H13v-165h76c-8-144 16-237 103-308 64-53 146-79 247-79v168" id="ar"/><g id="j"><use transform="matrix(0.013020833333333334,0,0,0.013020833333333334,0,0)" xlink:href="#ap"/><use transform="matrix(0.013020833333333334,0,0,0.013020833333333334,15.572916666666668,0)" xlink:href="#aq"/><use transform="matrix(0.013020833333333334,0,0,0.013020833333333334,30.611979166666668,0)" xlink:href="#ac"/><use transform="matrix(0.013020833333333334,0,0,0.013020833333333334,38.97135416666667,0)" xlink:href="#V"/><use transform="matrix(0.013020833333333334,0,0,0.013020833333333334,44.57031250000001,0)" xlink:href="#ar"/><use transform="matrix(0.013020833333333334,0,0,0.013020833333333334,51.27604166666667,0)" xlink:href="#V"/><use transform="matrix(0.013020833333333334,0,0,0.013020833333333334,56.875,0)" xlink:href="#W"/><use transform="matrix(0.013020833333333334,0,0,0.013020833333333334,70.52083333333334,0)" xlink:href="#af"/><use transform="matrix(0.013020833333333334,0,0,0.013020833333333334,84.16666666666667,0)" xlink:href="#ac"/><use transform="matrix(0.013020833333333334,0,0,0.013020833333333334,92.52604166666667,0)" xlink:href="#V"/><use transform="matrix(0.013020833333333334,0,0,0.013020833333333334,98.125,0)" xlink:href="#aq"/><use transform="matrix(0.013020833333333334,0,0,0.013020833333333334,113.1640625,0)" xlink:href="#ag"/></g><path fill="#fff" d="M528 21C257 21 44-237 44-512v-845h165v863c-5 182 140 350 319 350 184 0 320-166 320-354v-859h166v845c8 275-215 533-486 533" id="as"/><path fill="#fff" d="M68-580C-45-823 215-987 454-987c229 0 422 106 446 301l-161 34c-17-73-62-125-139-149-121-38-274-36-352 29-25 21-38 44-38 71 0 66 59 112 178 131 86 13 176 12 261 32 115 27 244 96 244 266 0 81-40 141-102 191C645 38 359 49 192-49 101-102 48-180 33-282l163-35c5 118 149 172 287 172 93 0 238-46 238-127 0-45-37-74-103-103-48-21-337-53-386-71-61-22-144-92-164-134" id="at"/><g id="k"><use transform="matrix(0.013020833333333334,0,0,0.013020833333333334,0,0)" xlink:href="#as"/><use transform="matrix(0.013020833333333334,0,0,0.013020833333333334,15.364583333333334,0)" xlink:href="#at"/><use transform="matrix(0.013020833333333334,0,0,0.013020833333333334,28.815104166666668,0)" xlink:href="#aa"/><use transform="matrix(0.013020833333333334,0,0,0.013020833333333334,43.85416666666667,0)" xlink:href="#aj"/></g><g id="l"><use transform="matrix(0.013020833333333334,0,0,0.013020833333333334,0,0)" xlink:href="#Y"/><use transform="matrix(0.013020833333333334,0,0,0.013020833333333334,14.765625,0)" xlink:href="#aq"/><use transform="matrix(0.013020833333333334,0,0,0.013020833333333334,29.8046875,0)" xlink:href="#ag"/><use transform="matrix(0.013020833333333334,0,0,0.013020833333333334,44.739583333333336,0)" xlink:href="#ac"/><use transform="matrix(0.013020833333333334,0,0,0.013020833333333334,53.098958333333336,0)" xlink:href="#af"/><use transform="matrix(0.013020833333333334,0,0,0.013020833333333334,67.36979166666667,0)" xlink:href="#W"/><use transform="matrix(0.013020833333333334,0,0,0.013020833333333334,81.015625,0)" xlink:href="#ac"/></g><path fill="#fff" d="M192-484c0 176 132 340 304 340 176 0 296-170 296-340 0-175-125-342-296-342-172 0-304 166-304 342zM962-87c7 262-205 470-468 470C247 383 70 200 36-22l162-27c41 178 140 267 297 267 189 0 305-150 302-345C718-28 618 21 496 21 226 21 26-209 26-484c0-263 209-507 470-507 123 0 224 50 301 151v-130h165v883" id="au"/><g id="m"><use transform="matrix(0.013020833333333334,0,0,0.013020833333333334,0,0)" xlink:href="#ae"/><use transform="matrix(0.013020833333333334,0,0,0.013020833333333334,18.5546875,0)" xlink:href="#aa"/><use transform="matrix(0.013020833333333334,0,0,0.013020833333333334,33.59375,0)" xlink:href="#at"/><use transform="matrix(0.013020833333333334,0,0,0.013020833333333334,47.044270833333336,0)" xlink:href="#at"/><use transform="matrix(0.013020833333333334,0,0,0.013020833333333334,60.49479166666667,0)" xlink:href="#af"/><use transform="matrix(0.013020833333333334,0,0,0.013020833333333334,74.765625,0)" xlink:href="#au"/><use transform="matrix(0.013020833333333334,0,0,0.013020833333333334,89.47916666666667,0)" xlink:href="#aa"/></g><g id="n"><use transform="matrix(0.013020833333333334,0,0,0.013020833333333334,0,0)" xlink:href="#ae"/><use transform="matrix(0.013020833333333334,0,0,0.013020833333333334,18.5546875,0)" xlink:href="#af"/><use transform="matrix(0.013020833333333334,0,0,0.013020833333333334,32.825520833333336,0)" xlink:href="#W"/><use transform="matrix(0.013020833333333334,0,0,0.013020833333333334,46.47135416666667,0)" xlink:href="#Z"/><use transform="matrix(0.013020833333333334,0,0,0.013020833333333334,60.546875,0)" xlink:href="#V"/><use transform="matrix(0.013020833333333334,0,0,0.013020833333333334,66.14583333333334,0)" xlink:href="#ag"/><use transform="matrix(0.013020833333333334,0,0,0.013020833333333334,81.08072916666667,0)" xlink:href="#aa"/></g><path fill="#fff" d="M749-1306c-8 33-102 111-135 145-147 152-240 332-283 535-49 229-13 408 108 537-25 65-42 103-81 82-142-127-198-355-143-626 52-259 254-603 437-717 46-29 108-4 97 44" id="av"/><path fill="#fff" d="M769-676c113 194 26 434-104 557C539 0 373 42 219-53c-22 120-51 265-88 360-67 66-131 44-91-97C101-6 168-519 222-761c8-39 31-58 70-58 42 0 59 20 52 61 55-36 116-54 184-54 106 0 188 45 241 136zM420-128c125 0 240-143 264-256 33-152-46-307-185-307-73 0-133 33-178 99-17 97-42 225-76 384 56 53 114 80 175 80" id="aw"/><path fill="#fff" d="M793-463c-9 40-31 60-70 60-80 1-43-138-51-213-5-50-37-75-88-75-121 0-294 151-313 256-31 176-65 311-86 406-36 19-65 29-88 29-19 0-25-19-17-58 33-168 42-209 125-599 16-71 32-153 98-159 59-6 48 77 30 125 93-82 183-123 270-123 170 0 233 160 190 351" id="ax"/><path fill="#fff" d="M797-222c25 29 8 58-17 85C721-74 554-4 435 0 234 6 84-185 127-396c37-185 262-430 470-425 158 3 245 162 230 335-2 28-30 45-70 59-63 23-358 32-497 21-34 146 63 273 203 273 43 0 101-18 171-53s110-53 120-53c17 0 33 5 43 17zm-97-317c-20-175-163-188-278-92-40 34-78 72-110 117 67-1 197-9 388-25" id="ay"/><path fill="#fff" d="M779-67c-38 35-68 53-90 53-19 0-25-29-17-88C571-34 472 0 374 0 173 0 81-173 127-393c50-242 384-532 677-387 15-33 38-49 70-49 45 0 56 47 37 143-35 173-122 437-132 619zm-3-563c-30-3-112-56-164-56-161 0-328 165-354 304-24 130 21 247 140 247 93 0 191-43 293-130 13-71 70-306 85-365" id="az"/><path fill="#fff" d="M701-46c-33 23-61 34-85 34-25 0-31-22-18-65C447 31 228 33 134-121c-48-78-58-167-40-272 34-194 252-428 465-428 58 0 110 17 155 50 39-166 72-358 103-538 6-38 30-56 67-56 31 0 46 19 49 56 1 19-6 61-17 125C857-853 738-361 701-46zm-88-171c12-94 36-225 71-392-98-123-242-99-348 15-57 61-93 126-109 195-33 144 32 273 165 273 82 0 156-30 221-91" id="aA"/><path fill="#fff" d="M797-423C754-218 596 0 372 0 177 0 83-166 126-377c42-209 213-451 437-451 197 0 279 188 234 405zM406-125c138 1 239-166 266-298s-17-280-137-280c-146 0-241 104-285 312-37 177 15 266 156 266" id="aB"/><g id="o"><use transform="matrix(0.01193576388888889,0,0,0.01193576388888889,0,0)" xlink:href="#av"/><use transform="matrix(0.01193576388888889,0,0,0.01193576388888889,6.863064236111112,0)" xlink:href="#aw"/><use transform="matrix(0.01193576388888889,0,0,0.01193576388888889,15.767144097222227,0)" xlink:href="#ax"/><use transform="matrix(0.01193576388888889,0,0,0.01193576388888889,24.157986111111114,0)" xlink:href="#ay"/><use transform="matrix(0.01193576388888889,0,0,0.01193576388888889,33.79014756944445,0)" xlink:href="#aw"/><use transform="matrix(0.01193576388888889,0,0,0.01193576388888889,42.694227430555564,0)" xlink:href="#az"/><use transform="matrix(0.01193576388888889,0,0,0.01193576388888889,52.57703993055556,0)" xlink:href="#ax"/><use transform="matrix(0.01193576388888889,0,0,0.01193576388888889,60.96788194444446,0)" xlink:href="#az"/><use transform="matrix(0.01193576388888889,0,0,0.01193576388888889,70.85069444444446,0)" xlink:href="#aA"/><use transform="matrix(0.01193576388888889,0,0,0.01193576388888889,79.81445312500001,0)" xlink:href="#aB"/></g><g id="p"><use transform="matrix(0.01193576388888889,0,0,0.01193576388888889,0,0)" xlink:href="#aw"/><use transform="matrix(0.01193576388888889,0,0,0.01193576388888889,8.904079861111112,0)" xlink:href="#az"/><use transform="matrix(0.01193576388888889,0,0,0.01193576388888889,18.786892361111114,0)" xlink:href="#ax"/><use transform="matrix(0.01193576388888889,0,0,0.01193576388888889,27.177734375000004,0)" xlink:href="#az"/></g><path fill="#fff" d="M400-1090c54 66-57 174-118 104-51-73 51-173 118-104zm-60 344c-5 45-21 106-45 186-62 208-74 363-143 543C103 3 41 20 56-55c36-182 72-290 121-527 16-75 32-130 49-166s41-54 72-54c35 0 46 18 42 56" id="aC"/><path fill="#fff" d="M1124-416c-14 66-77 290-90 356-8 40-33 60-73 60-43 0-56-40-39-121 12-58 67-248 79-306 37-181 11-271-82-271-76 0-142 46-198 138-3 155-83 353-111 495-9 40-33 60-73 60-43 0-55-40-39-121 12-57 67-247 79-304 37-182 12-273-80-273-69 0-132 41-188 124-25 111-58 267-101 468C192-37 163 0 121 0 82 0 70-26 80-80c17-85 109-497 153-702 37-19 67-29 91-29 21 0 27 18 18 53 114-97 324-94 367 55 73-77 153-116 238-116 175 0 232 134 177 403" id="aD"/><path fill="#fff" d="M437-1229C356-896 291-330 188-31 122 7 57 33 88-94c61-252 179-922 239-1193 11-52 35-78 74-78 43 0 58 46 36 136" id="aE"/><path fill="#fff" d="M781-423c-14 66-82 291-95 358-6 31-38 63-73 63-43 0-54-41-38-123 11-58 67-244 79-302 37-184 0-276-116-276-89 0-166 44-232 131l-97 456C192-39 163 0 121 0 82 0 69-27 80-80c41-202 95-435 153-702 37-19 66-29 87-29 23 0 30 22 19 67 73-53 149-80 230-80 198 0 268 133 212 401" id="aF"/><path fill="#fff" d="M770-782c-7 33-31 54-73 63-21 5-85 7-191 7-58 275-106 502-144 681-45 21-79 31-101 31-17 0-23-10-18-31 49-221 59-265 147-679-67 0-161 0-205-9-14-49-19-87 24-103 19-7 88-11 207-11l84-396c8-36 31-54 68-54 39 0 54 18 46 54-16 77-44 209-84 394 78-2 142-3 192-3 40 0 56 19 48 56" id="aG"/><path fill="#fff" d="M649-739C595-480 393-132 208-15c-45 29-105 4-94-45 2-11 10-26 26-41 23-22 61-53 106-100 146-152 238-336 283-547 47-223 11-399-108-529 25-64 41-100 80-82 155 146 204 352 148 620" id="aH"/><g id="q"><use transform="matrix(0.01193576388888889,0,0,0.01193576388888889,0,0)" xlink:href="#aC"/><use transform="matrix(0.01193576388888889,0,0,0.01193576388888889,2.733289930555556,0)" xlink:href="#aD"/><use transform="matrix(0.01193576388888889,0,0,0.01193576388888889,15.814887152777779,0)" xlink:href="#aw"/><use transform="matrix(0.01193576388888889,0,0,0.01193576388888889,24.71896701388889,0)" xlink:href="#aE"/><use transform="matrix(0.01193576388888889,0,0,0.01193576388888889,27.667100694444454,0)" xlink:href="#ay"/><use transform="matrix(0.01193576388888889,0,0,0.01193576388888889,37.299262152777786,0)" xlink:href="#aD"/><use transform="matrix(0.01193576388888889,0,0,0.01193576388888889,50.38085937500001,0)" xlink:href="#ay"/><use transform="matrix(0.01193576388888889,0,0,0.01193576388888889,60.013020833333336,0)" xlink:href="#aF"/><use transform="matrix(0.01193576388888889,0,0,0.01193576388888889,68.94097222222223,0)" xlink:href="#aG"/><use transform="matrix(0.01193576388888889,0,0,0.01193576388888889,76.23372395833334,0)" xlink:href="#az"/><use transform="matrix(0.01193576388888889,0,0,0.01193576388888889,86.11653645833334,0)" xlink:href="#ax"/><use transform="matrix(0.01193576388888889,0,0,0.01193576388888889,94.50737847222223,0)" xlink:href="#aH"/></g><path fill="#fff" d="M87 75C49 33 22-17 22-94c0-76 28-126 65-167h31c-38 41-64 92-64 168S80 34 118 75H87" id="aI"/><path fill="#fff" d="M115-194c55 1 70 41 70 98S169 2 115 4C84 4 66-9 55-30l1 105H24l-1-265h31l2 30c10-21 28-34 59-34zm-8 174c40 0 45-34 45-75s-6-73-45-74c-42 0-51 32-51 76 0 43 10 73 51 73" id="aJ"/><path fill="#fff" d="M114-163C36-179 61-72 57 0H25l-1-190h30c1 12-1 29 2 39 6-27 23-49 58-41v29" id="aK"/><path fill="#fff" d="M100-194c62-1 85 37 85 99 1 63-27 99-86 99S16-35 15-95c0-66 28-99 85-99zM99-20c44 1 53-31 53-75 0-43-8-75-51-75s-53 32-53 75 10 74 51 75" id="aL"/><path fill="#fff" d="M177-190C167-65 218 103 67 71c-23-6-38-20-44-43l32-5c15 47 100 32 89-28v-30C133-14 115 1 83 1 29 1 15-40 15-95c0-56 16-97 71-98 29-1 48 16 59 35 1-10 0-23 2-32h30zM94-22c36 0 50-32 50-73 0-42-14-75-50-75-39 0-46 34-46 75s6 73 46 73" id="aM"/><path fill="#fff" d="M141-36C126-15 110 5 73 4 37 3 15-17 15-53c-1-64 63-63 125-63 3-35-9-54-41-54-24 1-41 7-42 31l-33-3c5-37 33-52 76-52 45 0 72 20 72 64v82c-1 20 7 32 28 27v20c-31 9-61-2-59-35zM48-53c0 20 12 33 32 33 41-3 63-29 60-74-43 2-92-5-92 41" id="aN"/><path fill="#fff" d="M210-169c-67 3-38 105-44 169h-31v-121c0-29-5-50-35-48C34-165 62-65 56 0H25l-1-190h30c1 10-1 24 2 32 10-44 99-50 107 0 11-21 27-35 58-36 85-2 47 119 55 194h-31v-121c0-29-5-49-35-48" id="aO"/><path fill="#fff" d="M33-261c38 41 65 92 65 168S71 34 33 75H2C39 34 66-17 66-93S39-220 2-261h31" id="aP"/><g id="r"><use transform="matrix(0.06172839506172839,0,0,0.06172839506172839,0,0)" xlink:href="#aI"/><use transform="matrix(0.06172839506172839,0,0,0.06172839506172839,7.345679012345679,0)" xlink:href="#aJ"/><use transform="matrix(0.06172839506172839,0,0,0.06172839506172839,19.691358024691358,0)" xlink:href="#aK"/><use transform="matrix(0.06172839506172839,0,0,0.06172839506172839,27.037037037037038,0)" xlink:href="#aL"/><use transform="matrix(0.06172839506172839,0,0,0.06172839506172839,39.382716049382715,0)" xlink:href="#aM"/><use transform="matrix(0.06172839506172839,0,0,0.06172839506172839,51.72839506172839,0)" xlink:href="#aK"/><use transform="matrix(0.06172839506172839,0,0,0.06172839506172839,59.07407407407407,0)" xlink:href="#aN"/><use transform="matrix(0.06172839506172839,0,0,0.06172839506172839,71.41975308641975,0)" xlink:href="#aO"/><use transform="matrix(0.06172839506172839,0,0,0.06172839506172839,89.87654320987653,0)" xlink:href="#aN"/><use transform="matrix(0.06172839506172839,0,0,0.06172839506172839,102.22222222222221,0)" xlink:href="#aP"/></g><path fill="#fff" d="M101-251c68 0 85 55 85 127S166 4 100 4C33 4 14-52 14-124c0-73 17-127 87-127zm-1 229c47 0 54-49 54-102s-4-102-53-102c-51 0-55 48-55 102 0 53 5 102 54 102" id="aQ"/><path fill="#fff" d="M16-82v-28h88v28H16" id="aR"/><path fill="#fff" d="M190 0L58-211 59 0H30v-248h39L202-35l-2-213h31V0h-41" id="aS"/><g id="s"><use transform="matrix(0.06172839506172839,0,0,0.06172839506172839,0,0)" xlink:href="#aQ"/><use transform="matrix(0.06172839506172839,0,0,0.06172839506172839,12.345679012345679,0)" xlink:href="#aR"/><use transform="matrix(0.06172839506172839,0,0,0.06172839506172839,19.691358024691358,0)" xlink:href="#aS"/></g><path fill="#fff" d="M100-194c63 0 86 42 84 106H49c0 40 14 67 53 68 26 1 43-12 49-29l28 8c-11 28-37 45-77 45C44 4 14-33 15-96c1-61 26-98 85-98zm52 81c6-60-76-77-97-28-3 7-6 17-6 28h103" id="aT"/><path fill="#fff" d="M24-231v-30h32v30H24zM24 0v-190h32V0H24" id="aU"/><path fill="#fff" d="M135-143c-3-34-86-38-87 0 15 53 115 12 119 90S17 21 10-45l28-5c4 36 97 45 98 0-10-56-113-15-118-90-4-57 82-63 122-42 12 7 21 19 24 35" id="aV"/><path fill="#fff" d="M59-47c-2 24 18 29 38 22v24C64 9 27 4 27-40v-127H5v-23h24l9-43h21v43h35v23H59v120" id="aW"/><g id="t"><use transform="matrix(0.06172839506172839,0,0,0.06172839506172839,0,0)" xlink:href="#aI"/><use transform="matrix(0.06172839506172839,0,0,0.06172839506172839,7.345679012345679,0)" xlink:href="#aK"/><use transform="matrix(0.06172839506172839,0,0,0.06172839506172839,14.691358024691358,0)" xlink:href="#aT"/><use transform="matrix(0.06172839506172839,0,0,0.06172839506172839,27.037037037037038,0)" xlink:href="#aM"/><use transform="matrix(0.06172839506172839,0,0,0.06172839506172839,39.382716049382715,0)" xlink:href="#aU"/><use transform="matrix(0.06172839506172839,0,0,0.06172839506172839,44.25925925925926,0)" xlink:href="#aV"/><use transform="matrix(0.06172839506172839,0,0,0.06172839506172839,55.37037037037037,0)" xlink:href="#aW"/><use transform="matrix(0.06172839506172839,0,0,0.06172839506172839,61.54320987654321,0)" xlink:href="#aK"/><use transform="matrix(0.06172839506172839,0,0,0.06172839506172839,68.88888888888889,0)" xlink:href="#aN"/><use transform="matrix(0.06172839506172839,0,0,0.06172839506172839,81.23456790123457,0)" xlink:href="#aP"/></g><g id="u"><use transform="matrix(0.06172839506172839,0,0,0.06172839506172839,0,0)" xlink:href="#aI"/><use transform="matrix(0.06172839506172839,0,0,0.06172839506172839,7.345679012345679,0)" xlink:href="#aT"/><use transform="matrix(0.06172839506172839,0,0,0.06172839506172839,19.691358024691358,0)" xlink:href="#aV"/></g><path fill="#fff" d="M96-169c-40 0-48 33-48 73s9 75 48 75c24 0 41-14 43-38l32 2c-6 37-31 61-74 61-59 0-76-41-82-99-10-93 101-131 147-64 4 7 5 14 7 22l-32 3c-4-21-16-35-41-35" id="aX"/><path fill="#fff" d="M84 4C-5 8 30-112 23-190h32v120c0 31 7 50 39 49 72-2 45-101 50-169h31l1 190h-30c-1-10 1-25-2-33-11 22-28 36-60 37" id="aY"/><g id="v"><use transform="matrix(0.06172839506172839,0,0,0.06172839506172839,0,0)" xlink:href="#aX"/><use transform="matrix(0.06172839506172839,0,0,0.06172839506172839,11.11111111111111,0)" xlink:href="#aL"/><use transform="matrix(0.06172839506172839,0,0,0.06172839506172839,23.45679012345679,0)" xlink:href="#aO"/><use transform="matrix(0.06172839506172839,0,0,0.06172839506172839,41.91358024691358,0)" xlink:href="#aJ"/><use transform="matrix(0.06172839506172839,0,0,0.06172839506172839,54.25925925925926,0)" xlink:href="#aY"/><use transform="matrix(0.06172839506172839,0,0,0.06172839506172839,66.60493827160494,0)" xlink:href="#aT"/><use transform="matrix(0.06172839506172839,0,0,0.06172839506172839,78.95061728395062,0)" xlink:href="#aV"/><use transform="matrix(0.06172839506172839,0,0,0.06172839506172839,90.06172839506173,0)" xlink:href="#aW"/><use transform="matrix(0.06172839506172839,0,0,0.06172839506172839,96.23456790123457,0)" xlink:href="#aL"/><use transform="matrix(0.06172839506172839,0,0,0.06172839506172839,108.58024691358025,0)" xlink:href="#aP"/></g><path fill="#fff" d="M27 0v-27h64v-190l-56 39v-29l58-41h29v221h61V0H27" id="aZ"/><g id="w"><use transform="matrix(0.06172839506172839,0,0,0.06172839506172839,0,0)" xlink:href="#aZ"/><use transform="matrix(0.06172839506172839,0,0,0.06172839506172839,12.345679012345679,0)" xlink:href="#aR"/><use transform="matrix(0.06172839506172839,0,0,0.06172839506172839,19.691358024691358,0)" xlink:href="#aS"/></g><path fill="#fff" d="M117-194c89-4 53 116 60 194h-32v-121c0-31-8-49-39-48C34-167 62-67 57 0H25l-1-190h30c1 10-1 24 2 32 11-22 29-35 61-36" id="ba"/><g id="x"><use transform="matrix(0.06172839506172839,0,0,0.06172839506172839,0,0)" xlink:href="#aI"/><use transform="matrix(0.06172839506172839,0,0,0.06172839506172839,7.345679012345679,0)" xlink:href="#aM"/><use transform="matrix(0.06172839506172839,0,0,0.06172839506172839,19.691358024691358,0)" xlink:href="#aT"/><use transform="matrix(0.06172839506172839,0,0,0.06172839506172839,32.03703703703704,0)" xlink:href="#ba"/><use transform="matrix(0.06172839506172839,0,0,0.06172839506172839,44.382716049382715,0)" xlink:href="#aT"/><use transform="matrix(0.06172839506172839,0,0,0.06172839506172839,56.72839506172839,0)" xlink:href="#aK"/><use transform="matrix(0.06172839506172839,0,0,0.06172839506172839,64.07407407407408,0)" xlink:href="#aN"/><use transform="matrix(0.06172839506172839,0,0,0.06172839506172839,76.41975308641976,0)" xlink:href="#aP"/></g><g id="y"><use transform="matrix(0.06172839506172839,0,0,0.06172839506172839,0,0)" xlink:href="#aZ"/><use transform="matrix(0.06172839506172839,0,0,0.06172839506172839,12.345679012345679,0)" xlink:href="#aR"/><use transform="matrix(0.06172839506172839,0,0,0.06172839506172839,19.691358024691358,0)" xlink:href="#aZ"/></g><g id="z"><use transform="matrix(0.06172839506172839,0,0,0.06172839506172839,0,0)" xlink:href="#aI"/><use transform="matrix(0.06172839506172839,0,0,0.06172839506172839,7.345679012345679,0)" xlink:href="#aM"/><use transform="matrix(0.06172839506172839,0,0,0.06172839506172839,19.691358024691358,0)" xlink:href="#aT"/><use transform="matrix(0.06172839506172839,0,0,0.06172839506172839,32.03703703703704,0)" xlink:href="#ba"/><use transform="matrix(0.06172839506172839,0,0,0.06172839506172839,44.382716049382715,0)" xlink:href="#aT"/><use transform="matrix(0.06172839506172839,0,0,0.06172839506172839,56.72839506172839,0)" xlink:href="#aK"/><use transform="matrix(0.06172839506172839,0,0,0.06172839506172839,64.07407407407408,0)" xlink:href="#aN"/></g><path fill="#fff" d="M24 0v-261h32V0H24" id="bb"/><g id="A"><use transform="matrix(0.06172839506172839,0,0,0.06172839506172839,0,0)" xlink:href="#aO"/><use transform="matrix(0.06172839506172839,0,0,0.06172839506172839,18.456790123456788,0)" xlink:href="#aN"/><use transform="matrix(0.06172839506172839,0,0,0.06172839506172839,30.80246913580247,0)" xlink:href="#ba"/><use transform="matrix(0.06172839506172839,0,0,0.06172839506172839,43.148148148148145,0)" xlink:href="#aY"/><use transform="matrix(0.06172839506172839,0,0,0.06172839506172839,55.49382716049382,0)" xlink:href="#aN"/><use transform="matrix(0.06172839506172839,0,0,0.06172839506172839,67.8395061728395,0)" xlink:href="#bb"/><use transform="matrix(0.06172839506172839,0,0,0.06172839506172839,72.71604938271605,0)" xlink:href="#aO"/><use transform="matrix(0.06172839506172839,0,0,0.06172839506172839,91.17283950617283,0)" xlink:href="#aT"/><use transform="matrix(0.06172839506172839,0,0,0.06172839506172839,103.51851851851852,0)" xlink:href="#ba"/><use transform="matrix(0.06172839506172839,0,0,0.06172839506172839,115.8641975308642,0)" xlink:href="#aW"/><use transform="matrix(0.06172839506172839,0,0,0.06172839506172839,122.03703703703704,0)" xlink:href="#aT"/><use transform="matrix(0.06172839506172839,0,0,0.06172839506172839,134.3827160493827,0)" xlink:href="#aP"/></g><path fill="#fff" d="M108 0H70L1-190h34L89-25l56-165h34" id="bc"/><path fill="#fff" d="M34 0v-190h32V0H34zM24-211c8-23 27-35 38-54h36v5l-58 49H24" id="bd"/><g id="B"><use transform="matrix(0.06172839506172839,0,0,0.06172839506172839,0,0)" xlink:href="#aI"/><use transform="matrix(0.06172839506172839,0,0,0.06172839506172839,7.345679012345679,0)" xlink:href="#aT"/><use transform="matrix(0.06172839506172839,0,0,0.06172839506172839,19.691358024691358,0)" xlink:href="#ba"/><use transform="matrix(0.06172839506172839,0,0,0.06172839506172839,32.03703703703704,0)" xlink:href="#bc"/><use transform="matrix(0.06172839506172839,0,0,0.06172839506172839,43.14814814814815,0)" xlink:href="#bd"/><use transform="matrix(0.06172839506172839,0,0,0.06172839506172839,49.320987654320994,0)" xlink:href="#aN"/><use transform="matrix(0.06172839506172839,0,0,0.06172839506172839,61.66666666666667,0)" xlink:href="#aP"/></g><g id="C"><use transform="matrix(0.06172839506172839,0,0,0.06172839506172839,0,0)" xlink:href="#aI"/><use transform="matrix(0.06172839506172839,0,0,0.06172839506172839,7.345679012345679,0)" xlink:href="#aN"/><use transform="matrix(0.06172839506172839,0,0,0.06172839506172839,19.691358024691358,0)" xlink:href="#bc"/><use transform="matrix(0.06172839506172839,0,0,0.06172839506172839,30.80246913580247,0)" xlink:href="#aU"/><use transform="matrix(0.06172839506172839,0,0,0.06172839506172839,35.67901234567901,0)" xlink:href="#aV"/><use transform="matrix(0.06172839506172839,0,0,0.06172839506172839,46.79012345679013,0)" xlink:href="#aN"/><use transform="matrix(0.06172839506172839,0,0,0.06172839506172839,59.135802469135804,0)" xlink:href="#aP"/></g></defs></g></svg>